<!--?xml version="1.0" encoding="utf-8"?-->
<!-- Svg Vector Icons : http://www.onlinewebfonts.com/icon -->

<svg version="1.1" xmlns="http://www.w3.org/2000/svg" xmlns:xlink="http://www.w3.org/1999/xlink" x="0px" y="0px" viewBox="0 0 256 256" enable-background="new 0 0 256 256" xml:space="preserve">
<metadata> Svg Vector Icons : http://www.onlinewebfonts.com/icon </metadata>
<g><g><g><path fill="#23CC49" data-title="Layer 0" xs="0" d="M115.9,10.5c-30.7,3.1-59.8,18.8-79.6,43.1C11,84.7,3.4,126.4,16,164.8c11.6,35.6,39.5,63.5,75.2,75.2c24.6,8,49,8.1,73.5,0.1c26.9-8.8,49-26.3,64.2-50.8c12.9-20.8,19.1-47.7,16.7-72.2c-3.1-30.6-18.1-59.6-40.9-78.7C179.7,17.3,147.8,7.3,115.9,10.5z M137.4,102.7c26.5,17.7,33.8,22.8,34.1,23.9c0.8,3.4,1.3,3-34.1,26.6c-22.6,15.1-34.3,22.6-35.5,22.7c-1.3,0.2-2.1-0.1-3.1-1.2l-1.4-1.4V128V82.6l1.4-1.4c1-1.1,1.8-1.4,3.1-1.2C103,80.2,114.8,87.7,137.4,102.7z"/></g></g></g>
</svg>