<?xml version="1.0" encoding="utf-8"?>
<!-- Uploaded to: SVG Repo, www.svgrepo.com, Generator: SVG Repo Mixer Tools -->
<svg fill="#000000" width="800px" height="800px" viewBox="0 0 32 32" version="1.1" xmlns="http://www.w3.org/2000/svg">
<title>puzzle</title>
<path d="M23.994 17.752h-2.711c-0.014-0-0.025-0.008-0.039-0.008-0.69 0.001-1.249 0.56-1.25 1.25v0c0 0.002 0 0.004 0 0.005 0 0.828-0.671 1.5-1.5 1.5s-1.5-0.671-1.5-1.5c0-0.002 0-0.004 0-0.006v0c-0-0.69-0.56-1.25-1.25-1.25h-0c-0.014 0-0.025 0.007-0.039 0.008h-1.457v-0.464c1.609-0.532 2.75-2.023 2.75-3.78s-1.141-3.248-2.722-3.772l-0.028-0.008v-1.729c0-0.69-0.56-1.25-1.25-1.25v0h-10.999c-0.69 0-1.25 0.56-1.25 1.25v0 10.976l-0.005 0.024v11c0 0.69 0.56 1.25 1.25 1.25l21.999 0.004c0.69-0.001 1.249-0.56 1.25-1.25v-11c-0.001-0.69-0.56-1.249-1.25-1.25h-0zM3.25 9.248h8.499v1.51c0 0.69 0.56 1.25 1.25 1.25v0c0.828 0 1.5 0.672 1.5 1.5s-0.672 1.5-1.5 1.5v0c-0.69 0-1.25 0.56-1.25 1.25v0 1.49h-0.465c-0.537-1.61-2.030-2.75-3.789-2.75-1.647 0-3.061 0.999-3.668 2.424l-0.010 0.026c-0.041 0.096-0.061 0.2-0.094 0.3h-0.473zM3.245 20.248h1.457c0.017 0.001 0.031 0.010 0.048 0.010 0.692-0.006 1.251-0.567 1.254-1.259v-0c0.006-0.822 0.674-1.487 1.498-1.487 0.827 0 1.497 0.67 1.498 1.496v0c0 0.69 0.56 1.25 1.25 1.25h0c0.017 0 0.031-0.009 0.048-0.010h1.448v0.466c-1.61 0.537-2.75 2.030-2.75 3.789 0 1.646 0.998 3.059 2.422 3.667l0.026 0.010c0.096 0.041 0.202 0.062 0.302 0.095v0.472h-8.5zM22.744 28.752h-8.499v-1.46c0.001-0.015 0.009-0.028 0.009-0.043-0.006-0.692-0.566-1.251-1.258-1.254h-0c-0.825-0.003-1.494-0.672-1.494-1.498 0-0.827 0.671-1.498 1.498-1.498 0.002 0 0.003 0 0.005 0h-0c0.69-0 1.25-0.56 1.25-1.25v-0c0-0.015-0.008-0.028-0.009-0.043v-1.453h0.472c0.534 1.605 2.023 2.742 3.777 2.742s3.243-1.137 3.769-2.714l0.008-0.028h0.472zM29.994 0.75h-10.998c-0.69 0-1.25 0.56-1.25 1.25v2.702c-0.001 0.017-0.010 0.031-0.010 0.048 0 0.69 0.56 1.25 1.25 1.25h0c0.828 0 1.5 0.672 1.5 1.5s-0.672 1.5-1.5 1.5v0c-0.69 0-1.25 0.56-1.25 1.25v0c0 0.017 0.009 0.031 0.010 0.048v2.702c0 0.69 0.56 1.25 1.25 1.25h1.71c0.532 1.609 2.023 2.75 3.78 2.75s3.248-1.141 3.772-2.722l0.008-0.028h1.728c0.69-0 1.25-0.56 1.25-1.25v-11c-0-0.69-0.56-1.25-1.25-1.25h-0zM28.744 11.75h-1.508c-0.69 0-1.25 0.56-1.25 1.25v0c0 0.828-0.672 1.5-1.5 1.5s-1.5-0.672-1.5-1.5v0c-0-0.69-0.56-1.25-1.25-1.25h-1.49v-0.473c1.604-0.535 2.74-2.024 2.74-3.777s-1.136-3.242-2.712-3.769l-0.028-0.008v-0.473h8.498z"></path>
</svg>