<?xml version="1.0" encoding="iso-8859-1"?>
<!-- Uploaded to: SVG Repo, www.svgrepo.com, Generator: SVG Repo Mixer Tools -->
<svg fill="#000000" height="800px" width="800px" version="1.1" id="Capa_1" xmlns="http://www.w3.org/2000/svg" xmlns:xlink="http://www.w3.org/1999/xlink" 
	 viewBox="0 0 369.564 369.564" xml:space="preserve">
<g>
	<g id="Layer_5_18_">
		<g>
			<path d="M225.252,177.878c-8.815,1.976-16.982,0.168-24.113-1.505c-4.528-1.065-4.833-4.36-1.656-7.721
				c6.151-6.491,9.919-15.261,9.919-24.904c0-20.024-16.223-36.247-36.249-36.247c-14.51,0-27.036,8.529-32.833,20.849
				c-1.976,4.211-6.319,7.101-10.896,6.337c-8.954-1.521-15.344-1.044-15.344,7.638c0,8.752,10.931,17.46,24.217,23.725
				c4.187,1.977,4.24,4.748,0.388,7.352c-13.117,8.803-21.751,23.775-21.751,40.757c0,27.104,19.764,43.263,46.811,45.008
				c56.139,3.623,78.828-5.282,90.382-37.577C278.801,152.623,238.032,175.015,225.252,177.878z"/>
			<path d="M363.292,168.713h-12.011c-0.679,0-4.098-0.211-4.633-4.384c-9.497-72.924-67.073-130.7-140.019-140.5
				c-5.217-0.691-5.779-4.153-5.779-5.609V6.272c0-3.457-2.813-6.27-6.271-6.27h-19.598c-3.457,0-6.271,2.813-6.271,6.27v11.945
				c0,2.888-2.362,5.148-5.878,5.622c-38.372,5.153-73.787,23.954-99.719,52.939c-21.977,24.545-35.867,54.718-40.166,87.254
				c-0.455,3.451-2.778,4.681-4.802,4.681H6.27c-3.457,0-6.27,2.813-6.27,6.271v19.597c0,3.457,2.813,6.27,6.27,6.27h11.688
				c2.046,0,4.378,1.248,4.794,4.755c4.359,35.726,20.801,69.515,46.295,95.144c25.485,25.62,59.168,42.238,94.848,46.793
				c2.394,0.305,4.817,2.033,4.817,4.744v11.006c0,3.457,2.813,6.27,6.271,6.27h19.598c3.457,0,6.271-2.813,6.271-6.27V352.29
				c0-2.497,1.997-4.373,5.084-4.778c35.707-4.62,69.389-21.32,94.841-47.023c25.471-25.722,41.842-59.608,46.101-95.434
				c0.334-3.103,2.686-4.205,4.597-4.205h11.819c3.457,0,6.27-2.813,6.27-6.27v-19.597
				C369.561,171.526,366.748,168.713,363.292,168.713z M194.58,305.857h-19.598c-3.457,0-6.271,2.813-6.271,6.271v5.373
				c0,2.37-1.671,4.76-5.404,4.76c-0.546,0-1.123-0.05-1.713-0.149c-59.041-9.957-104.727-56.425-113.701-115.716
				c-0.144-0.679-0.526-2.484,0.729-4.035c0.79-0.975,1.982-1.512,3.359-1.512h5.453c3.458,0,6.271-2.813,6.271-6.27v-19.597
				c0-3.458-2.813-6.271-6.271-6.271h-5.213c-1.333,0-2.499-0.507-3.284-1.428c-0.803-0.941-1.097-2.125-0.873-3.52
				c4.161-26.227,15.761-50.588,33.543-70.448c21.012-23.468,49.618-39.193,80.557-44.281l0.157-0.027
				c0.478-0.081,1.131-0.193,1.85-0.193c3.12,0,4.54,2.173,4.54,4.192v4.428c0,3.458,2.813,6.271,6.271,6.271h19.598
				c3.457,0,6.271-2.813,6.271-6.271v-4.428c0-2.002,1.452-4.158,4.642-4.158c0.788,0,1.54,0.125,2.096,0.218
				c58.051,9.626,103.718,55.063,113.633,113.066c0.164,0.956,0.548,3.196-0.945,4.968c-0.875,1.039-2.171,1.61-3.65,1.61h-4.5
				c-3.458,0-6.271,2.813-6.271,6.271v19.597c0,3.457,2.813,6.27,6.271,6.27h4.73c1.49,0,2.795,0.566,3.677,1.595
				c1.464,1.71,1.13,3.857,1.005,4.666c-9.208,59.102-55.045,105.354-114.059,115.091c-0.525,0.086-1.008,0.129-1.475,0.129
				c-3.035,0-5.155-1.983-5.155-4.822v-5.381C200.85,308.669,198.037,305.857,194.58,305.857z"/>
		</g>
	</g>
</g>
</svg>