<?xml version="1.0" encoding="utf-8"?><!-- Uploaded to: SVG Repo, www.svgrepo.com, Generator: SVG Repo Mixer Tools -->
<svg width="800px" height="800px" viewBox="0 0 24 24" id="Line" xmlns="http://www.w3.org/2000/svg"><path id="primary" d="M19,9V20a1,1,0,0,1-1,1H6a1,1,0,0,1-1-1V9" style="fill:none;stroke:#000000;stroke-linecap:round;stroke-linejoin:round;stroke-width:2px"></path><path id="primary-2" data-name="primary" d="M19,19h1a1,1,0,0,0,1-1V15H19ZM5,15H3v3a1,1,0,0,0,1,1H5ZM20,7V4a1,1,0,0,0-1-1H5A1,1,0,0,0,4,4V7A2,2,0,0,0,6,9H18A2,2,0,0,0,20,7ZM15,8v2M9,8v2m6,11H9V16a1,1,0,0,1,1-1h4a1,1,0,0,1,1,1Z" style="fill:none;stroke:#000000;stroke-linecap:round;stroke-linejoin:round;stroke-width:2px"></path></svg>