<svg width="250" height="115" viewBox="0 0 250 115" fill="none" xmlns="http://www.w3.org/2000/svg">
<g filter="url(#filter0_i_7_72)">
<path d="M34.4215 94.4359C34.4215 103.939 26.716 111.642 17.2108 111.642C7.70552 111.642 0 103.939 0 94.4359C0 84.933 7.70552 77.2293 17.2108 77.2293C26.716 77.2293 34.4215 84.933 34.4215 94.4359Z" fill="url(#paint0_radial_7_72)"/>
<path d="M49.631 63.4241C49.631 75.9105 39.3271 86.0327 26.6166 86.0327C13.9061 86.0327 3.60225 75.9105 3.60225 63.4241C3.60225 50.9377 13.9061 40.8155 26.6166 40.8155C39.3271 40.8155 49.631 50.9377 49.631 63.4241Z" fill="url(#paint1_radial_7_72)"/>
<path d="M76.848 58.6223C76.848 71.1086 66.5441 81.2308 53.8336 81.2308C41.1231 81.2308 30.8193 71.1086 30.8193 58.6223C30.8193 46.1359 41.1231 36.0137 53.8336 36.0137C66.5441 36.0137 76.848 46.1359 76.848 58.6223Z" fill="url(#paint2_radial_7_72)"/>
<path d="M124.078 35.2134C124.078 54.6612 108.308 70.4267 88.8555 70.4267C69.4029 70.4267 53.6335 54.6612 53.6335 35.2134C53.6335 15.7656 69.4029 0 88.8555 0C108.308 0 124.078 15.7656 124.078 35.2134Z" fill="url(#paint3_radial_7_72)"/>
<path d="M158.899 48.0182C158.899 67.466 143.13 83.2316 123.677 83.2316C104.225 83.2316 88.4553 67.466 88.4553 48.0182C88.4553 28.5704 104.225 12.8049 123.677 12.8049C143.13 12.8049 158.899 28.5704 158.899 48.0182Z" fill="url(#paint4_radial_7_72)"/>
<path d="M194.521 59.2225C194.521 78.6703 178.752 94.4359 159.299 94.4359C139.847 94.4359 124.078 78.6703 124.078 59.2225C124.078 39.7747 139.847 24.0091 159.299 24.0091C178.752 24.0091 194.521 39.7747 194.521 59.2225Z" fill="url(#paint5_radial_7_72)"/>
<path d="M239.55 86.0327C239.55 105.48 239.19 111.642 219.737 111.642C200.285 111.642 184.515 95.8768 184.515 76.429C184.515 56.9812 203.086 62.4237 222.539 62.4237C241.992 62.4237 239.55 66.5849 239.55 86.0327Z" fill="url(#paint6_radial_7_72)"/>
<path d="M18.4115 62.4237H222.539V111.642H18.4115V62.4237Z" fill="url(#paint7_radial_7_72)"/>
<path d="M38.2198 97.9153C38.2198 107.044 30.8288 114.443 21.7115 114.443C12.5943 114.443 5.20325 107.044 5.20325 97.9153C5.20325 88.7871 12.5943 81.3872 21.7115 81.3872C30.8288 81.3872 38.2198 88.7871 38.2198 97.9153Z" fill="url(#paint8_radial_7_72)"/>
<path d="M52.8085 68.1262C52.8085 80.1203 42.9252 89.8434 30.7335 89.8434C18.5418 89.8434 8.65847 80.1203 8.65847 68.1262C8.65847 56.1321 18.5418 46.409 30.7335 46.409C42.9252 46.409 52.8085 56.1321 52.8085 68.1262Z" fill="url(#paint9_radial_7_72)"/>
<path d="M78.9146 63.5137C78.9146 75.5078 69.0313 85.2309 56.8396 85.2309C44.6479 85.2309 34.7646 75.5078 34.7646 63.5137C34.7646 51.5196 44.6479 41.7965 56.8396 41.7965C69.0313 41.7965 78.9146 51.5196 78.9146 63.5137Z" fill="url(#paint10_radial_7_72)"/>
<path d="M124.216 41.0278C124.216 59.7088 109.091 74.8528 90.432 74.8528C71.7734 74.8528 56.6476 59.7088 56.6476 41.0278C56.6476 22.3467 71.7734 7.20273 90.432 7.20273C109.091 7.20273 124.216 22.3467 124.216 41.0278Z" fill="url(#paint11_radial_7_72)"/>
<path d="M157.617 53.3278C157.617 72.0088 142.491 87.1528 123.832 87.1528C105.174 87.1528 90.0481 72.0088 90.0481 53.3278C90.0481 34.6467 105.174 19.5027 123.832 19.5027C142.491 19.5027 157.617 34.6467 157.617 53.3278Z" fill="url(#paint12_radial_7_72)"/>
<path d="M191.785 64.0903C191.785 82.7713 176.659 97.9153 158.001 97.9153C139.342 97.9153 124.216 82.7713 124.216 64.0903C124.216 45.4092 139.342 30.2653 158.001 30.2653C176.659 30.2653 191.785 45.4092 191.785 64.0903Z" fill="url(#paint13_radial_7_72)"/>
<path d="M249.756 80.6184C249.756 99.2995 234.63 114.443 215.972 114.443C197.313 114.443 182.187 99.2995 182.187 80.6184C182.187 61.9374 197.313 46.7934 215.972 46.7934C234.63 46.7934 249.756 61.9374 249.756 80.6184Z" fill="url(#paint14_radial_7_72)"/>
<path d="M22.8633 67.1653H218.659V114.443H22.8633V67.1653Z" fill="url(#paint15_radial_7_72)"/>
</g>
<defs>
<filter id="filter0_i_7_72" x="-3.36598" y="0" width="253.122" height="117.809" filterUnits="userSpaceOnUse" color-interpolation-filters="sRGB">
<feFlood flood-opacity="0" result="BackgroundImageFix"/>
<feBlend mode="normal" in="SourceGraphic" in2="BackgroundImageFix" result="shape"/>
<feColorMatrix in="SourceAlpha" type="matrix" values="0 0 0 0 0 0 0 0 0 0 0 0 0 0 0 0 0 0 127 0" result="hardAlpha"/>
<feOffset dx="-6.73197" dy="6.73197"/>
<feGaussianBlur stdDeviation="1.68299"/>
<feComposite in2="hardAlpha" operator="arithmetic" k2="-1" k3="1"/>
<feColorMatrix type="matrix" values="0 0 0 0 1 0 0 0 0 1 0 0 0 0 1 0 0 0 0.63 0"/>
<feBlend mode="normal" in2="shape" result="effect1_innerShadow_7_72"/>
</filter>
<radialGradient id="paint0_radial_7_72" cx="0" cy="0" r="1" gradientUnits="userSpaceOnUse" gradientTransform="translate(124.541 47.797) rotate(90) scale(112.76 246.083)">
<stop offset="0.5" stop-color="#5FAF64"/>
<stop offset="1" stop-color="#28492A"/>
</radialGradient>
<radialGradient id="paint1_radial_7_72" cx="0" cy="0" r="1" gradientUnits="userSpaceOnUse" gradientTransform="translate(124.541 47.797) rotate(90) scale(112.76 246.083)">
<stop offset="0.5" stop-color="#5FAF64"/>
<stop offset="1" stop-color="#28492A"/>
</radialGradient>
<radialGradient id="paint2_radial_7_72" cx="0" cy="0" r="1" gradientUnits="userSpaceOnUse" gradientTransform="translate(124.541 47.797) rotate(90) scale(112.76 246.083)">
<stop offset="0.5" stop-color="#5FAF64"/>
<stop offset="1" stop-color="#28492A"/>
</radialGradient>
<radialGradient id="paint3_radial_7_72" cx="0" cy="0" r="1" gradientUnits="userSpaceOnUse" gradientTransform="translate(124.541 47.797) rotate(90) scale(112.76 246.083)">
<stop offset="0.5" stop-color="#5FAF64"/>
<stop offset="1" stop-color="#28492A"/>
</radialGradient>
<radialGradient id="paint4_radial_7_72" cx="0" cy="0" r="1" gradientUnits="userSpaceOnUse" gradientTransform="translate(124.541 47.797) rotate(90) scale(112.76 246.083)">
<stop offset="0.5" stop-color="#5FAF64"/>
<stop offset="1" stop-color="#28492A"/>
</radialGradient>
<radialGradient id="paint5_radial_7_72" cx="0" cy="0" r="1" gradientUnits="userSpaceOnUse" gradientTransform="translate(124.541 47.797) rotate(90) scale(112.76 246.083)">
<stop offset="0.5" stop-color="#5FAF64"/>
<stop offset="1" stop-color="#28492A"/>
</radialGradient>
<radialGradient id="paint6_radial_7_72" cx="0" cy="0" r="1" gradientUnits="userSpaceOnUse" gradientTransform="translate(124.541 47.797) rotate(90) scale(112.76 246.083)">
<stop offset="0.5" stop-color="#5FAF64"/>
<stop offset="1" stop-color="#28492A"/>
</radialGradient>
<radialGradient id="paint7_radial_7_72" cx="0" cy="0" r="1" gradientUnits="userSpaceOnUse" gradientTransform="translate(124.541 47.797) rotate(90) scale(112.76 246.083)">
<stop offset="0.5" stop-color="#5FAF64"/>
<stop offset="1" stop-color="#28492A"/>
</radialGradient>
<radialGradient id="paint8_radial_7_72" cx="0" cy="0" r="1" gradientUnits="userSpaceOnUse" gradientTransform="translate(124.541 47.797) rotate(90) scale(112.76 246.083)">
<stop offset="0.5" stop-color="#5FAF64"/>
<stop offset="1" stop-color="#28492A"/>
</radialGradient>
<radialGradient id="paint9_radial_7_72" cx="0" cy="0" r="1" gradientUnits="userSpaceOnUse" gradientTransform="translate(124.541 47.797) rotate(90) scale(112.76 246.083)">
<stop offset="0.5" stop-color="#5FAF64"/>
<stop offset="1" stop-color="#28492A"/>
</radialGradient>
<radialGradient id="paint10_radial_7_72" cx="0" cy="0" r="1" gradientUnits="userSpaceOnUse" gradientTransform="translate(124.541 47.797) rotate(90) scale(112.76 246.083)">
<stop offset="0.5" stop-color="#5FAF64"/>
<stop offset="1" stop-color="#28492A"/>
</radialGradient>
<radialGradient id="paint11_radial_7_72" cx="0" cy="0" r="1" gradientUnits="userSpaceOnUse" gradientTransform="translate(124.541 47.797) rotate(90) scale(112.76 246.083)">
<stop offset="0.5" stop-color="#5FAF64"/>
<stop offset="1" stop-color="#28492A"/>
</radialGradient>
<radialGradient id="paint12_radial_7_72" cx="0" cy="0" r="1" gradientUnits="userSpaceOnUse" gradientTransform="translate(124.541 47.797) rotate(90) scale(112.76 246.083)">
<stop offset="0.5" stop-color="#5FAF64"/>
<stop offset="1" stop-color="#28492A"/>
</radialGradient>
<radialGradient id="paint13_radial_7_72" cx="0" cy="0" r="1" gradientUnits="userSpaceOnUse" gradientTransform="translate(124.541 47.797) rotate(90) scale(112.76 246.083)">
<stop offset="0.5" stop-color="#5FAF64"/>
<stop offset="1" stop-color="#28492A"/>
</radialGradient>
<radialGradient id="paint14_radial_7_72" cx="0" cy="0" r="1" gradientUnits="userSpaceOnUse" gradientTransform="translate(124.541 47.797) rotate(90) scale(112.76 246.083)">
<stop offset="0.5" stop-color="#5FAF64"/>
<stop offset="1" stop-color="#28492A"/>
</radialGradient>
<radialGradient id="paint15_radial_7_72" cx="0" cy="0" r="1" gradientUnits="userSpaceOnUse" gradientTransform="translate(124.541 47.797) rotate(90) scale(112.76 246.083)">
<stop offset="0.5" stop-color="#5FAF64"/>
<stop offset="1" stop-color="#28492A"/>
</radialGradient>
</defs>
</svg>
