<svg width="192" height="64" viewBox="0 0 192 64" fill="none" xmlns="http://www.w3.org/2000/svg">
<g filter="url(#filter0_i_7_70)">
<path d="M30.203 48.9869C30.203 56.881 23.4418 63.2805 15.1015 63.2805C6.76117 63.2805 0 56.881 0 48.9869C0 41.0927 6.76117 34.6933 15.1015 34.6933C23.4418 34.6933 30.203 41.0927 30.203 48.9869Z" fill="url(#paint0_radial_7_70)"/>
<path d="M62.4586 27.4771C62.4586 40.9661 50.9056 51.9011 36.6541 51.9011C22.4027 51.9011 10.8496 40.9661 10.8496 27.4771C10.8496 13.988 22.4027 3.05301 36.6541 3.05301C50.9056 3.05301 62.4586 13.988 62.4586 27.4771Z" fill="url(#paint1_radial_7_70)"/>
<path d="M98.5263 24.4241C98.5263 37.9131 86.9732 48.8481 72.7218 48.8481C58.4703 48.8481 46.9173 37.9131 46.9173 24.4241C46.9173 10.935 58.4703 0 72.7218 0C86.9732 0 98.5263 10.935 98.5263 24.4241Z" fill="url(#paint2_radial_7_70)"/>
<path d="M147.789 34.6933C147.789 48.1823 136.236 59.1173 121.985 59.1173C107.733 59.1173 96.1804 48.1823 96.1804 34.6933C96.1804 21.2042 107.733 10.2692 121.985 10.2692C136.236 10.2692 147.789 21.2042 147.789 34.6933Z" fill="url(#paint3_radial_7_70)"/>
<path d="M191.188 38.8564C191.188 52.3455 179.635 63.2805 165.383 63.2805C151.132 63.2805 139.579 52.3455 139.579 38.8564C139.579 25.3674 151.132 14.4324 165.383 14.4324C179.635 14.4324 191.188 25.3674 191.188 38.8564Z" fill="url(#paint4_radial_7_70)"/>
<path d="M16.421 34.6933H165.97V63.2805H16.421V34.6933Z" fill="url(#paint5_radial_7_70)"/>
</g>
<defs>
<filter id="filter0_i_7_70" x="-3.36598" y="0" width="194.554" height="66.6463" filterUnits="userSpaceOnUse" color-interpolation-filters="sRGB">
<feFlood flood-opacity="0" result="BackgroundImageFix"/>
<feBlend mode="normal" in="SourceGraphic" in2="BackgroundImageFix" result="shape"/>
<feColorMatrix in="SourceAlpha" type="matrix" values="0 0 0 0 0 0 0 0 0 0 0 0 0 0 0 0 0 0 127 0" result="hardAlpha"/>
<feOffset dx="-6.73197" dy="6.73197"/>
<feGaussianBlur stdDeviation="1.68299"/>
<feComposite in2="hardAlpha" operator="arithmetic" k2="-1" k3="1"/>
<feColorMatrix type="matrix" values="0 0 0 0 1 0 0 0 0 1 0 0 0 0 1 0 0 0 0.63 0"/>
<feBlend mode="normal" in2="shape" result="effect1_innerShadow_7_70"/>
</filter>
<radialGradient id="paint0_radial_7_70" cx="0" cy="0" r="1" gradientUnits="userSpaceOnUse" gradientTransform="translate(95.3363 26.4289) rotate(90) scale(62.3499 188.376)">
<stop offset="0.5" stop-color="#5FAF64"/>
<stop offset="1" stop-color="#28492A"/>
</radialGradient>
<radialGradient id="paint1_radial_7_70" cx="0" cy="0" r="1" gradientUnits="userSpaceOnUse" gradientTransform="translate(95.3363 26.4289) rotate(90) scale(62.3499 188.376)">
<stop offset="0.5" stop-color="#5FAF64"/>
<stop offset="1" stop-color="#28492A"/>
</radialGradient>
<radialGradient id="paint2_radial_7_70" cx="0" cy="0" r="1" gradientUnits="userSpaceOnUse" gradientTransform="translate(95.3363 26.4289) rotate(90) scale(62.3499 188.376)">
<stop offset="0.5" stop-color="#5FAF64"/>
<stop offset="1" stop-color="#28492A"/>
</radialGradient>
<radialGradient id="paint3_radial_7_70" cx="0" cy="0" r="1" gradientUnits="userSpaceOnUse" gradientTransform="translate(95.3363 26.4289) rotate(90) scale(62.3499 188.376)">
<stop offset="0.5" stop-color="#5FAF64"/>
<stop offset="1" stop-color="#28492A"/>
</radialGradient>
<radialGradient id="paint4_radial_7_70" cx="0" cy="0" r="1" gradientUnits="userSpaceOnUse" gradientTransform="translate(95.3363 26.4289) rotate(90) scale(62.3499 188.376)">
<stop offset="0.5" stop-color="#5FAF64"/>
<stop offset="1" stop-color="#28492A"/>
</radialGradient>
<radialGradient id="paint5_radial_7_70" cx="0" cy="0" r="1" gradientUnits="userSpaceOnUse" gradientTransform="translate(95.3363 26.4289) rotate(90) scale(62.3499 188.376)">
<stop offset="0.5" stop-color="#5FAF64"/>
<stop offset="1" stop-color="#28492A"/>
</radialGradient>
</defs>
</svg>
