<svg width="60" height="35" viewBox="0 0 60 35" fill="none" xmlns="http://www.w3.org/2000/svg">
<path d="M53.6707 15.8305C30.9392 9.3882 32.9418 0.275138 17.6448 0.00148556C2.34779 -0.272167 -11.2666 37.3552 14.1788 34.7687C57.0522 36.0651 67.1257 32.3701 53.6707 15.8305Z" fill="url(#paint0_radial_7_68)"/>
<path d="M53.6707 15.8305C30.9392 9.3882 32.9418 0.275138 17.6448 0.00148556C2.34779 -0.272167 -11.2666 37.3552 14.1788 34.7687C57.0522 36.0651 67.1257 32.3701 53.6707 15.8305Z" fill="url(#paint1_radial_7_68)"/>
<path d="M53.6707 15.8305C30.9392 9.3882 32.9418 0.275138 17.6448 0.00148556C2.34779 -0.272167 -11.2666 37.3552 14.1788 34.7687C57.0522 36.0651 67.1257 32.3701 53.6707 15.8305Z" fill="url(#paint2_linear_7_68)"/>
<path d="M53.6707 15.8305C30.9392 9.3882 32.9418 0.275138 17.6448 0.00148556C2.34779 -0.272167 -11.2666 37.3552 14.1788 34.7687C57.0522 36.0651 67.1257 32.3701 53.6707 15.8305Z" fill="url(#paint3_radial_7_68)"/>
<path d="M53.6707 15.8305C30.9392 9.3882 32.9418 0.275138 17.6448 0.00148556C2.34779 -0.272167 -11.2666 37.3552 14.1788 34.7687C57.0522 36.0651 67.1257 32.3701 53.6707 15.8305Z" fill="url(#paint4_radial_7_68)"/>
<path d="M53.6707 15.8305C30.9392 9.3882 32.9418 0.275138 17.6448 0.00148556C2.34779 -0.272167 -11.2666 37.3552 14.1788 34.7687C57.0522 36.0651 67.1257 32.3701 53.6707 15.8305Z" fill="url(#paint5_linear_7_68)"/>
<path d="M53.6707 15.8305C30.9392 9.3882 40.3821 12.0261 45.5311 22.9186C50.68 33.8112 27.7785 35.1472 36.6753 34.7849C52.8794 34.125 67.1257 32.3701 53.6707 15.8305Z" fill="url(#paint6_radial_7_68)"/>
<path d="M53.6707 15.8305C30.9392 9.3882 40.3821 12.0261 45.5311 22.9186C50.68 33.8112 27.7785 35.1472 36.6753 34.7849C52.8794 34.125 67.1257 32.3701 53.6707 15.8305Z" fill="url(#paint7_radial_7_68)"/>
<path d="M53.6707 15.8305C30.9392 9.3882 40.3821 12.0261 45.5311 22.9186C50.68 33.8112 27.7785 35.1472 36.6753 34.7849C52.8794 34.125 67.1257 32.3701 53.6707 15.8305Z" fill="url(#paint8_linear_7_68)"/>
<path d="M53.6707 15.8305C30.9392 9.3882 40.3821 12.0261 45.5311 22.9186C50.68 33.8112 27.7785 35.1472 36.6753 34.7849C52.8794 34.125 67.1257 32.3701 53.6707 15.8305Z" fill="url(#paint9_radial_7_68)"/>
<path d="M53.6707 15.8305C30.9392 9.3882 40.3821 12.0261 45.5311 22.9186C50.68 33.8112 27.7785 35.1472 36.6753 34.7849C52.8794 34.125 67.1257 32.3701 53.6707 15.8305Z" fill="url(#paint10_radial_7_68)"/>
<path d="M53.6707 15.8305C30.9392 9.3882 40.3821 12.0261 45.5311 22.9186C50.68 33.8112 27.7785 35.1472 36.6753 34.7849C52.8794 34.125 67.1257 32.3701 53.6707 15.8305Z" fill="url(#paint11_linear_7_68)"/>
<defs>
<radialGradient id="paint0_radial_7_68" cx="0" cy="0" r="1" gradientUnits="userSpaceOnUse" gradientTransform="translate(50.5645 7.29297) rotate(152.805) scale(55.1671 110.55)">
<stop offset="0.105" stop-color="#C4C4C4"/>
<stop offset="0.845" stop-color="#5E5E5E"/>
</radialGradient>
<radialGradient id="paint1_radial_7_68" cx="0" cy="0" r="1" gradientUnits="userSpaceOnUse" gradientTransform="translate(38.5965 12.919) rotate(-79.8245) scale(16.936 38.4598)">
<stop stop-color="white" stop-opacity="0.64"/>
<stop offset="0.565" stop-color="white" stop-opacity="0"/>
</radialGradient>
<linearGradient id="paint2_linear_7_68" x1="45.9393" y1="21.728" x2="46.603" y2="32.736" gradientUnits="userSpaceOnUse">
<stop offset="0.815" stop-opacity="0"/>
<stop offset="1" stop-opacity="0.12"/>
</linearGradient>
<radialGradient id="paint3_radial_7_68" cx="0" cy="0" r="1" gradientUnits="userSpaceOnUse" gradientTransform="translate(50.5645 7.29297) rotate(152.805) scale(55.1671 110.55)">
<stop offset="0.105" stop-color="#C4C4C4"/>
<stop offset="0.845" stop-color="#5E5E5E"/>
</radialGradient>
<radialGradient id="paint4_radial_7_68" cx="0" cy="0" r="1" gradientUnits="userSpaceOnUse" gradientTransform="translate(38.5965 12.919) rotate(-79.8245) scale(16.936 38.4598)">
<stop stop-color="white" stop-opacity="0.64"/>
<stop offset="0.565" stop-color="white" stop-opacity="0"/>
</radialGradient>
<linearGradient id="paint5_linear_7_68" x1="45.9393" y1="21.728" x2="46.603" y2="32.736" gradientUnits="userSpaceOnUse">
<stop offset="0.815" stop-opacity="0"/>
<stop offset="1" stop-opacity="0.12"/>
</linearGradient>
<radialGradient id="paint6_radial_7_68" cx="0" cy="0" r="1" gradientUnits="userSpaceOnUse" gradientTransform="translate(50.5645 7.29297) rotate(152.805) scale(55.1671 110.55)">
<stop offset="0.105" stop-color="#C4C4C4"/>
<stop offset="0.845" stop-color="#5E5E5E"/>
</radialGradient>
<radialGradient id="paint7_radial_7_68" cx="0" cy="0" r="1" gradientUnits="userSpaceOnUse" gradientTransform="translate(38.5965 12.919) rotate(-79.8245) scale(16.936 38.4598)">
<stop stop-color="white" stop-opacity="0.64"/>
<stop offset="0.565" stop-color="white" stop-opacity="0"/>
</radialGradient>
<linearGradient id="paint8_linear_7_68" x1="45.9393" y1="21.728" x2="46.603" y2="32.736" gradientUnits="userSpaceOnUse">
<stop offset="0.815" stop-opacity="0"/>
<stop offset="1" stop-opacity="0.12"/>
</linearGradient>
<radialGradient id="paint9_radial_7_68" cx="0" cy="0" r="1" gradientUnits="userSpaceOnUse" gradientTransform="translate(50.5645 7.29297) rotate(152.805) scale(55.1671 110.55)">
<stop offset="0.105" stop-color="#C4C4C4"/>
<stop offset="0.845" stop-color="#5E5E5E"/>
</radialGradient>
<radialGradient id="paint10_radial_7_68" cx="0" cy="0" r="1" gradientUnits="userSpaceOnUse" gradientTransform="translate(38.5965 12.919) rotate(-79.8245) scale(16.936 38.4598)">
<stop stop-color="white" stop-opacity="0.64"/>
<stop offset="0.565" stop-color="white" stop-opacity="0"/>
</radialGradient>
<linearGradient id="paint11_linear_7_68" x1="45.9393" y1="21.728" x2="46.603" y2="32.736" gradientUnits="userSpaceOnUse">
<stop offset="0.815" stop-opacity="0"/>
<stop offset="1" stop-opacity="0.12"/>
</linearGradient>
</defs>
</svg>
