<svg width="67" height="57" viewBox="0 0 67 57" fill="none" xmlns="http://www.w3.org/2000/svg">
<path d="M60.3796 25.5724C34.8067 15.1656 37.0596 0.444453 19.8505 0.00239975C2.64139 -0.439654 -12.6748 60.343 15.9513 56.1648C64.1838 58.259 75.5165 52.2901 60.3796 25.5724Z" fill="url(#paint0_radial_7_78)"/>
<path d="M60.3796 25.5724C34.8067 15.1656 37.0596 0.444453 19.8505 0.00239975C2.64139 -0.439654 -12.6748 60.343 15.9513 56.1648C64.1838 58.259 75.5165 52.2901 60.3796 25.5724Z" fill="url(#paint1_radial_7_78)"/>
<path d="M60.3796 25.5724C34.8067 15.1656 37.0596 0.444453 19.8505 0.00239975C2.64139 -0.439654 -12.6748 60.343 15.9513 56.1648C64.1838 58.259 75.5165 52.2901 60.3796 25.5724Z" fill="url(#paint2_linear_7_78)"/>
<path d="M60.3796 25.5724C34.8067 15.1656 37.0596 0.444453 19.8505 0.00239975C2.64139 -0.439654 -12.6748 60.343 15.9513 56.1648C64.1838 58.259 75.5165 52.2901 60.3796 25.5724Z" fill="url(#paint3_radial_7_78)"/>
<path d="M60.3796 25.5724C34.8067 15.1656 37.0596 0.444453 19.8505 0.00239975C2.64139 -0.439654 -12.6748 60.343 15.9513 56.1648C64.1838 58.259 75.5165 52.2901 60.3796 25.5724Z" fill="url(#paint4_radial_7_78)"/>
<path d="M60.3796 25.5724C34.8067 15.1656 37.0596 0.444453 19.8505 0.00239975C2.64139 -0.439654 -12.6748 60.343 15.9513 56.1648C64.1838 58.259 75.5165 52.2901 60.3796 25.5724Z" fill="url(#paint5_linear_7_78)"/>
<path d="M60.3796 25.5724C34.8067 15.1656 45.43 19.4268 51.2226 37.0224C57.0151 54.618 31.251 56.7763 41.2599 56.191C59.4894 55.125 75.5165 52.2901 60.3796 25.5724Z" fill="url(#paint6_radial_7_78)"/>
<path d="M60.3796 25.5724C34.8067 15.1656 45.43 19.4268 51.2226 37.0224C57.0151 54.618 31.251 56.7763 41.2599 56.191C59.4894 55.125 75.5165 52.2901 60.3796 25.5724Z" fill="url(#paint7_radial_7_78)"/>
<path d="M60.3796 25.5724C34.8067 15.1656 45.43 19.4268 51.2226 37.0224C57.0151 54.618 31.251 56.7763 41.2599 56.191C59.4894 55.125 75.5165 52.2901 60.3796 25.5724Z" fill="url(#paint8_linear_7_78)"/>
<path d="M60.3796 25.5724C34.8067 15.1656 45.43 19.4268 51.2226 37.0224C57.0151 54.618 31.251 56.7763 41.2599 56.191C59.4894 55.125 75.5165 52.2901 60.3796 25.5724Z" fill="url(#paint9_radial_7_78)"/>
<path d="M60.3796 25.5724C34.8067 15.1656 45.43 19.4268 51.2226 37.0224C57.0151 54.618 31.251 56.7763 41.2599 56.191C59.4894 55.125 75.5165 52.2901 60.3796 25.5724Z" fill="url(#paint10_radial_7_78)"/>
<path d="M60.3796 25.5724C34.8067 15.1656 45.43 19.4268 51.2226 37.0224C57.0151 54.618 31.251 56.7763 41.2599 56.191C59.4894 55.125 75.5165 52.2901 60.3796 25.5724Z" fill="url(#paint11_linear_7_78)"/>
<defs>
<radialGradient id="paint0_radial_7_78" cx="0" cy="0" r="1" gradientUnits="userSpaceOnUse" gradientTransform="translate(56.8851 11.7809) rotate(143.58) scale(68.6009 161.561)">
<stop offset="0.105" stop-color="#C4C4C4"/>
<stop offset="0.845" stop-color="#5E5E5E"/>
</radialGradient>
<radialGradient id="paint1_radial_7_78" cx="0" cy="0" r="1" gradientUnits="userSpaceOnUse" gradientTransform="translate(43.4212 20.8691) rotate(-82.875) scale(27.1374 43.6192)">
<stop stop-color="white" stop-opacity="0.64"/>
<stop offset="0.565" stop-color="white" stop-opacity="0"/>
</radialGradient>
<linearGradient id="paint2_linear_7_78" x1="51.6819" y1="35.0991" x2="53.2154" y2="52.813" gradientUnits="userSpaceOnUse">
<stop offset="0.815" stop-opacity="0"/>
<stop offset="1" stop-opacity="0.12"/>
</linearGradient>
<radialGradient id="paint3_radial_7_78" cx="0" cy="0" r="1" gradientUnits="userSpaceOnUse" gradientTransform="translate(56.8851 11.7809) rotate(143.58) scale(68.6009 161.561)">
<stop offset="0.105" stop-color="#C4C4C4"/>
<stop offset="0.845" stop-color="#5E5E5E"/>
</radialGradient>
<radialGradient id="paint4_radial_7_78" cx="0" cy="0" r="1" gradientUnits="userSpaceOnUse" gradientTransform="translate(43.4212 20.8691) rotate(-82.875) scale(27.1374 43.6192)">
<stop stop-color="white" stop-opacity="0.64"/>
<stop offset="0.565" stop-color="white" stop-opacity="0"/>
</radialGradient>
<linearGradient id="paint5_linear_7_78" x1="51.6819" y1="35.0991" x2="53.2154" y2="52.813" gradientUnits="userSpaceOnUse">
<stop offset="0.815" stop-opacity="0"/>
<stop offset="1" stop-opacity="0.12"/>
</linearGradient>
<radialGradient id="paint6_radial_7_78" cx="0" cy="0" r="1" gradientUnits="userSpaceOnUse" gradientTransform="translate(56.8851 11.7809) rotate(143.58) scale(68.6009 161.561)">
<stop offset="0.105" stop-color="#C4C4C4"/>
<stop offset="0.845" stop-color="#5E5E5E"/>
</radialGradient>
<radialGradient id="paint7_radial_7_78" cx="0" cy="0" r="1" gradientUnits="userSpaceOnUse" gradientTransform="translate(43.4212 20.8691) rotate(-82.875) scale(27.1374 43.6192)">
<stop stop-color="white" stop-opacity="0.64"/>
<stop offset="0.565" stop-color="white" stop-opacity="0"/>
</radialGradient>
<linearGradient id="paint8_linear_7_78" x1="51.6819" y1="35.0991" x2="53.2154" y2="52.813" gradientUnits="userSpaceOnUse">
<stop offset="0.815" stop-opacity="0"/>
<stop offset="1" stop-opacity="0.12"/>
</linearGradient>
<radialGradient id="paint9_radial_7_78" cx="0" cy="0" r="1" gradientUnits="userSpaceOnUse" gradientTransform="translate(56.8851 11.7809) rotate(143.58) scale(68.6009 161.561)">
<stop offset="0.105" stop-color="#C4C4C4"/>
<stop offset="0.845" stop-color="#5E5E5E"/>
</radialGradient>
<radialGradient id="paint10_radial_7_78" cx="0" cy="0" r="1" gradientUnits="userSpaceOnUse" gradientTransform="translate(43.4212 20.8691) rotate(-82.875) scale(27.1374 43.6192)">
<stop stop-color="white" stop-opacity="0.64"/>
<stop offset="0.565" stop-color="white" stop-opacity="0"/>
</radialGradient>
<linearGradient id="paint11_linear_7_78" x1="51.6819" y1="35.0991" x2="53.2154" y2="52.813" gradientUnits="userSpaceOnUse">
<stop offset="0.815" stop-opacity="0"/>
<stop offset="1" stop-opacity="0.12"/>
</linearGradient>
</defs>
</svg>
